<svg width="105" height="32" viewBox="0 0 105 32" fill="none" xmlns="http://www.w3.org/2000/svg">
<g clip-path="url(#clip0_252_1423)">
<path d="M21.5376 17.6915C21.202 17.6915 20.8664 17.778 20.5665 17.9511L16.2048 20.4691C15.6045 20.8157 15.2341 21.459 15.2341 22.1506V27.1865C15.2341 27.8795 15.6053 28.5224 16.2053 28.8682L20.5665 31.3859C21.1662 31.7321 21.909 31.7321 22.5087 31.3859L26.8704 28.868C27.4707 28.5215 27.8412 27.8782 27.8412 27.1865V22.1506C27.8412 21.4579 27.4702 20.815 26.8704 20.4691L22.509 17.9513C22.2091 17.7782 21.8732 17.6915 21.5376 17.6915ZM21.5376 19.2121C21.6097 19.2121 21.6818 19.2312 21.7478 19.2693L26.1098 21.7873C26.2396 21.8621 26.3188 21.9989 26.3188 22.1505V27.1863C26.3188 27.3377 26.2405 27.474 26.1093 27.5497L21.7476 30.0675C21.6157 30.1436 21.4592 30.1436 21.3273 30.0675L16.9654 27.5495C16.8356 27.4748 16.7564 27.3382 16.7564 27.1865V22.1506C16.7564 21.9994 16.8347 21.8629 16.9659 21.7871L21.3276 19.2693C21.3936 19.2311 21.4655 19.2121 21.5376 19.2121Z" fill="#F8EDF8" stroke="#F8EDF8" stroke-width="0.708735" stroke-miterlimit="10"/>
<path d="M26.3191 14.3342V23.4197C26.3191 23.6215 26.3993 23.8151 26.542 23.9578C26.6847 24.1005 26.8783 24.1807 27.0801 24.1807C27.2819 24.1807 27.4755 24.1005 27.6182 23.9578C27.7609 23.8151 27.8411 23.6215 27.8411 23.4197V13.4553L26.3191 14.3342Z" fill="#F8EDF8" stroke="#F8EDF8" stroke-width="0.708736" stroke-miterlimit="10" stroke-linecap="round"/>
<path d="M15.4808 10.796C15.6474 11.0873 15.8891 11.3357 16.1883 11.51L20.5395 14.0462C21.1384 14.3952 21.8807 14.3973 22.4811 14.0539L26.8525 11.5538C27.4541 11.2098 27.8279 10.5684 27.8302 9.87581L27.8505 4.84003C27.8558 4.14765 27.4845 3.50286 26.8863 3.15415L22.5353 0.617947C21.9364 0.268906 21.194 0.266733 20.5936 0.610204L16.2222 3.11027C15.6209 3.45419 15.247 4.09542 15.2445 4.78777L15.2241 9.82374C15.2241 10.1699 15.3143 10.5042 15.4809 10.7955L15.4808 10.796ZM16.8009 10.041C16.7655 9.97837 16.7459 9.90636 16.7462 9.83024L16.7664 4.79362C16.7664 4.64383 16.8463 4.50708 16.978 4.43178L21.3494 1.93171C21.4807 1.85661 21.6379 1.85698 21.7688 1.93171L26.1199 4.46796C26.2514 4.54461 26.3291 4.68045 26.3285 4.83269L26.3081 9.86915C26.3081 10.019 26.2285 10.1556 26.0969 10.231L21.7254 12.731C21.5941 12.8061 21.4368 12.8059 21.3059 12.731L16.9547 10.1948C16.889 10.1566 16.8367 10.1036 16.8009 10.041Z" fill="#CA77CA" stroke="#CA77CA" stroke-width="0.708735" stroke-miterlimit="10"/>
<path d="M10.1926 8.31199L18.0794 3.80139C18.2546 3.70119 18.3828 3.53549 18.4358 3.34075C18.4889 3.14602 18.4624 2.93819 18.3622 2.76299C18.262 2.58779 18.0963 2.45956 17.9015 2.40653C17.7068 2.3535 17.499 2.38 17.3238 2.4802L8.67407 7.4271L10.1926 8.31199Z" fill="#CA77CA" stroke="#CA77CA" stroke-width="0.708736" stroke-miterlimit="10" stroke-linecap="round"/>
<path d="M12.6975 19.4462C12.866 19.1559 12.9597 18.8223 12.9605 18.4761L12.9736 13.4397C12.9736 12.7466 12.6051 12.1032 12.0069 11.7558L7.65208 9.22691C7.05288 8.87893 6.31049 8.87703 5.71012 9.22205L1.34274 11.7291C0.742251 12.0738 0.369245 12.7162 0.367497 13.4085L0.354492 18.4449C0.354492 19.138 0.723009 19.7814 1.3211 20.1288L5.67587 22.6577C6.2749 23.0056 7.01724 23.0076 7.61753 22.663L11.9851 20.1559C12.2853 19.9835 12.5287 19.7367 12.6972 19.4465L12.6975 19.4462ZM11.3825 18.6826C11.3463 18.7449 11.2936 18.7977 11.2276 18.8355L6.85949 21.3432C6.72961 21.4178 6.5715 21.4178 6.44036 21.3432L2.0856 18.8143C1.95479 18.7383 1.87626 18.6021 1.87663 18.4506L1.88963 13.4143C1.88963 13.2621 1.96862 13.1267 2.10069 13.0509L6.46865 10.5435C6.59849 10.4688 6.75641 10.4688 6.88758 10.5435L11.2423 13.0724C11.3732 13.1483 11.4518 13.2847 11.4514 13.4362L11.4384 18.4724C11.4384 18.5485 11.4187 18.6202 11.3825 18.6826Z" fill="#CA77CA" stroke="#CA77CA" stroke-width="0.708735" stroke-miterlimit="10"/>
<path d="M13.1995 25.2672L5.34269 20.7045C5.16815 20.6032 4.9605 20.5753 4.76542 20.627C4.57034 20.6788 4.4038 20.8059 4.30244 20.9804C4.20108 21.155 4.17321 21.3626 4.22496 21.5577C4.2767 21.7528 4.40382 21.9193 4.57836 22.0207L13.1951 27.0247L13.1995 25.2672Z" fill="#CA77CA" stroke="#CA77CA" stroke-width="0.708735" stroke-miterlimit="10" stroke-linecap="round"/>
<path d="M49.3027 26.9581C48.6636 26.9581 48.076 26.8859 47.54 26.7416C47.0246 26.618 46.5711 26.4221 46.1794 26.1541C45.8083 25.8861 45.4888 25.5459 45.2208 25.1336C44.9528 24.7213 44.7569 24.2471 44.6332 23.7111C44.5095 23.1751 44.4477 22.5772 44.4477 21.9175L44.4168 6.42479C44.4168 6.13617 44.4477 5.88879 44.5095 5.68263C44.5714 5.47647 44.6951 5.31155 44.8806 5.18786C45.0868 5.06417 45.3857 5.00232 45.7774 5.00232C46.1897 5.00232 46.4886 5.06417 46.6742 5.18786C46.8803 5.29092 47.0144 5.44555 47.0762 5.65171C47.1381 5.83726 47.1689 6.07432 47.1689 6.36294V22.0103C47.1689 22.3814 47.2102 22.7009 47.2926 22.969C47.3751 23.237 47.4988 23.474 47.6637 23.6802C47.8492 23.8658 48.076 23.9997 48.344 24.0822C48.612 24.1647 48.9316 24.2059 49.3027 24.2059C49.6531 24.2059 49.9315 24.2471 50.1377 24.3296C50.3438 24.412 50.4881 24.5564 50.5706 24.7625C50.6736 24.9687 50.7251 25.247 50.7251 25.5974C50.7251 25.9273 50.6736 26.1953 50.5706 26.4015C50.4675 26.587 50.3128 26.721 50.1067 26.8035C49.9005 26.9066 49.6325 26.9581 49.3027 26.9581ZM42.0047 26.9581C41.3862 26.9581 40.8193 26.8859 40.3039 26.7416C39.8091 26.618 39.3762 26.4324 39.0051 26.185C38.634 25.917 38.3248 25.5871 38.0774 25.1954C37.83 24.7831 37.6445 24.309 37.5208 23.773C37.4177 23.2163 37.3662 22.5979 37.3662 21.9175V6.42479C37.3662 6.13617 37.3971 5.88879 37.4589 5.68263C37.5208 5.47647 37.6445 5.31155 37.83 5.18786C38.0362 5.06417 38.3351 5.00232 38.7268 5.00232C39.1185 5.00232 39.4072 5.06417 39.5927 5.18786C39.7988 5.29092 39.9328 5.44555 39.9946 5.65171C40.0771 5.83726 40.1183 6.07432 40.1183 6.36294V22.0103C40.1183 22.4845 40.1905 22.8865 40.3348 23.2163C40.4792 23.5462 40.6956 23.7936 40.9842 23.9585C41.2728 24.1234 41.613 24.2059 42.0047 24.2059C42.3139 24.2059 42.5613 24.2471 42.7469 24.3296C42.9324 24.412 43.0664 24.5564 43.1489 24.7625C43.2314 24.9687 43.2726 25.247 43.2726 25.5974C43.2726 25.9273 43.221 26.1953 43.1179 26.4015C43.0355 26.587 42.9015 26.721 42.716 26.8035C42.5511 26.9066 42.3139 26.9581 42.0047 26.9581ZM55.0158 26.9581C54.6241 26.9581 54.3355 26.8963 54.1499 26.7726C53.9644 26.6489 53.8407 26.484 53.7789 26.2778C53.717 26.0716 53.6861 25.8242 53.6861 25.5356V13.2898C53.6861 13.0012 53.717 12.7642 53.7789 12.5786C53.8407 12.3931 53.9644 12.2487 54.1499 12.1457C54.3561 12.0426 54.6551 11.9911 55.0468 11.9911C55.5003 11.9911 55.8199 12.0838 56.0054 12.2694C56.2116 12.4343 56.3147 12.7332 56.3147 13.1662L56.191 14.4958C56.3353 14.1866 56.5517 13.8774 56.8403 13.5682C57.1289 13.2589 57.4691 12.9806 57.8608 12.7332C58.2731 12.4858 58.7061 12.29 59.1596 12.1457C59.6131 12.0014 60.077 11.9292 60.5512 11.9292C61.2727 11.9292 61.9118 12.0632 62.4684 12.3312C63.0457 12.5786 63.561 12.9394 64.0146 13.4135C64.4681 13.8877 64.8496 14.4753 65.1588 15.1762C65.5711 14.4959 66.004 13.9186 66.4576 13.4445C66.9317 12.9497 67.4677 12.5786 68.0656 12.3312C68.6634 12.0632 69.3335 11.9292 70.0756 11.9292C71.2507 11.9292 72.23 12.2281 73.0134 12.826C73.8174 13.4032 74.4152 14.2279 74.8069 15.2999C75.2193 16.3513 75.4254 17.6192 75.4254 19.1035V25.5665C75.4254 25.8551 75.3945 26.1025 75.3327 26.3087C75.2914 26.5149 75.1677 26.6695 74.9615 26.7726C74.776 26.8963 74.4771 26.9581 74.0648 26.9581C73.6731 26.9581 73.3741 26.8963 73.168 26.7726C72.9824 26.6489 72.8587 26.484 72.7969 26.2778C72.735 26.0716 72.7042 25.8242 72.7042 25.5356V19.0726C72.7042 18.1449 72.5907 17.3511 72.364 16.6914C72.1578 16.0111 71.828 15.4854 71.3744 15.1144C70.9415 14.7433 70.3746 14.5577 69.6737 14.5577C68.9315 14.5577 68.2717 14.7433 67.6945 15.1144C67.1379 15.4648 66.7049 15.9802 66.3957 16.6605C66.0865 17.3409 65.9318 18.1449 65.9318 19.0726V25.5974C65.9318 25.9067 65.87 26.1747 65.7463 26.4015C65.6226 26.6283 65.4371 26.7829 65.1897 26.8653C64.9423 26.9684 64.6434 26.989 64.2929 26.9272C63.9631 26.886 63.7157 26.8035 63.5508 26.6798C63.3859 26.5561 63.2828 26.4015 63.2416 26.216C63.2003 26.0098 63.1797 25.783 63.1797 25.5356V19.0726C63.1797 18.1449 63.0663 17.3511 62.8395 16.6914C62.6334 16.0111 62.3035 15.4854 61.85 15.1144C61.417 14.7433 60.8501 14.5577 60.1491 14.5577C59.407 14.5577 58.7473 14.7535 58.17 15.1452C57.6134 15.5163 57.1805 16.042 56.8713 16.7224C56.5621 17.4027 56.4074 18.1861 56.4074 19.0726V25.5665C56.4074 25.8551 56.3765 26.1025 56.3147 26.3087C56.2528 26.5149 56.1188 26.6695 55.9126 26.7726C55.727 26.8963 55.4281 26.9581 55.0158 26.9581ZM78.8541 20.0621C78.6067 20.0621 78.3799 20.0312 78.1738 19.9694C77.9882 19.9075 77.8336 19.7838 77.71 19.5983C77.6069 19.4128 77.5553 19.1241 77.5553 18.7324C77.5553 18.3407 77.6069 18.0521 77.71 17.8665C77.8336 17.681 77.9882 17.5573 78.1738 17.4955C78.3593 17.4336 78.5758 17.4027 78.8232 17.4027H86.9252C87.1726 17.4027 87.389 17.4336 87.5745 17.4955C87.76 17.5573 87.9043 17.681 88.0074 17.8665C88.1105 18.0521 88.1621 18.3407 88.1621 18.7324C88.1621 19.1241 88.1105 19.4128 88.0074 19.5983C87.9043 19.7838 87.7498 19.9075 87.5436 19.9694C87.3581 20.0312 87.1313 20.0621 86.8633 20.0621H78.8541Z" fill="#F8EDF8"/>
<path d="M96.8893 12.7728L92.3202 15.4105C91.937 15.6317 91.7019 16.0401 91.7019 16.4816V21.7569C91.7019 22.1993 91.9379 22.6077 92.3202 22.828L96.8893 25.4657C97.2724 25.6868 97.7435 25.6868 98.1267 25.4657L102.696 22.828C103.079 22.6068 103.314 22.1984 103.314 21.7569V16.4816C103.314 16.0392 103.078 15.6308 102.696 15.4105L98.1267 12.7728C97.7435 12.5516 97.2724 12.5516 96.8893 12.7728Z" stroke="#CA77CA" stroke-width="2.65522" stroke-miterlimit="10"/>
<path d="M103.314 6.30005V18.9449" stroke="#CA77CA" stroke-width="2.65522" stroke-miterlimit="10" stroke-linecap="round"/>
</g>
<defs>
<clipPath id="clip0_252_1423">
<rect width="104.642" height="32" fill="white"/>
</clipPath>
</defs>
</svg>
